<svg width="1501" height="366" viewBox="0 0 1501 366" fill="none" xmlns="http://www.w3.org/2000/svg">
<path d="M0 4.57764e-05C0 4.57764e-05 63.4651 136.68 75.5537 78.6381C87.6423 20.5957 105.775 136.68 182.336 136.68C258.897 136.68 295.163 4.57764e-05 410.005 44.4681C260.912 222.808 452.315 64.1682 562.875 98.6661C504.699 213.446 664.688 170.382 679.983 78.6381C696.839 -22.468 808.675 61.3524 853 125.446C892.492 182.553 1057 152.957 963 98.6661C823.904 18.3301 1113 56.1701 1195.76 136.68C1261 182.553 1354.93 152.957 1405.3 56.1701C1455.67 -40.6164 1501 44.4681 1501 44.4681V152.957V182.553H1469.73C1438.46 182.553 1375.92 182.553 1313.38 182.553C1250.83 182.553 1188.29 182.553 1125.75 182.553C1063.21 182.553 1000.67 182.553 938.125 182.553C875.584 182.553 813.041 182.553 750.5 182.553C687.959 182.553 625.416 182.553 562.875 182.553C500.334 182.553 437.791 182.553 375.25 182.553C312.709 182.553 250.166 182.553 187.625 182.553C125.083 182.553 62.5416 182.553 31.2709 182.553H0V4.57764e-05Z" fill="url(#paint0_linear_2:29)"/>
<path d="M0 17.8974C0 17.8974 63.4651 141.178 75.5537 88.8258C87.6423 36.4738 105.775 141.178 182.336 141.178C258.897 141.178 295.163 17.8974 410.005 58.0058C260.912 218.861 452.315 75.7745 562.875 106.89C504.699 210.417 664.688 171.576 679.983 88.8258C696.839 -2.36792 808.675 73.2348 853 131.045C892.492 182.553 1057 155.858 963 106.89C823.904 34.4304 1113 68.5605 1195.76 141.178C1261 182.553 1354.93 155.858 1405.3 68.5605C1455.67 -18.7371 1501 58.0058 1501 58.0058V155.858V182.553H1469.73C1438.46 182.553 1375.92 182.553 1313.38 182.553C1250.83 182.553 1188.29 182.553 1125.75 182.553C1063.21 182.553 1000.67 182.553 938.125 182.553C875.584 182.553 813.041 182.553 750.5 182.553C687.959 182.553 625.416 182.553 562.875 182.553C500.334 182.553 437.791 182.553 375.25 182.553C312.709 182.553 250.166 182.553 187.625 182.553C125.083 182.553 62.5416 182.553 31.2709 182.553H0V17.8974Z" fill="url(#paint1_linear_2:29)"/>
<path d="M0 240.839L31.2709 269.983C62.5416 299.126 125.083 328.27 187.625 352.586C250.166 376.538 312.709 367.431 375.25 333.097C437.791 299.126 500.334 269.983 562.875 265.156C625.416 259.965 687.959 294.573 750.5 318.525C813.041 342.841 875.584 342.841 938.125 328.27C1000.67 313.698 1063.21 299.126 1125.75 299.126C1188.29 299.126 1250.83 328.27 1313.38 318.525C1375.92 309.144 1438.46 259.965 1469.73 236.013L1501 211.696V182.553H1469.73C1438.46 182.553 1375.92 182.553 1313.38 182.553C1250.83 182.553 1188.29 182.553 1125.75 182.553C1063.21 182.553 1000.67 182.553 938.125 182.553C875.584 182.553 813.041 182.553 750.5 182.553C687.959 182.553 625.416 182.553 562.875 182.553C500.334 182.553 437.791 182.553 375.25 182.553C312.709 182.553 250.166 182.553 187.625 182.553C125.083 182.553 62.5416 182.553 31.2709 182.553H0V240.839Z" fill="url(#paint2_linear_2:29)"/>
<path d="M0 234.016L31.2709 259.747C62.5416 285.478 125.083 311.21 187.625 332.68C250.166 353.828 312.709 345.787 375.25 315.472C437.791 285.478 500.334 259.747 562.875 255.485C625.416 250.902 687.959 281.458 750.5 302.606C813.041 324.076 875.584 324.076 938.125 311.21C1000.67 298.344 1063.21 285.478 1125.75 285.478C1188.29 285.478 1250.83 311.21 1313.38 302.606C1375.92 294.324 1438.46 250.902 1469.73 229.754L1501 208.284V182.553H1469.73C1438.46 182.553 1375.92 182.553 1313.38 182.553C1250.83 182.553 1188.29 182.553 1125.75 182.553C1063.21 182.553 1000.67 182.553 938.125 182.553C875.584 182.553 813.041 182.553 750.5 182.553C687.959 182.553 625.416 182.553 562.875 182.553C500.334 182.553 437.791 182.553 375.25 182.553C312.709 182.553 250.166 182.553 187.625 182.553C125.083 182.553 62.5416 182.553 31.2709 182.553H0V234.016Z" fill="url(#paint3_linear_2:29)"/>
<defs>
<linearGradient id="paint0_linear_2:29" x1="750" y1="172.255" x2="750" y2="33.702" gradientUnits="userSpaceOnUse">
<stop stop-color="#99FFFF"/>
<stop offset="1" stop-color="#00FFFF" stop-opacity="0.9"/>
</linearGradient>
<linearGradient id="paint1_linear_2:29" x1="750" y1="173.264" x2="750" y2="48.2952" gradientUnits="userSpaceOnUse">
<stop stop-color="#9942F0"/>
<stop offset="1" stop-color="#00FFFF" stop-opacity="0.9"/>
</linearGradient>
<linearGradient id="paint2_linear_2:29" x1="751.705" y1="182.553" x2="750.271" y2="366.002" gradientUnits="userSpaceOnUse">
<stop stop-color="#CC99FF"/>
<stop offset="1" stop-color="#FF1AEC" stop-opacity="0.96"/>
</linearGradient>
<linearGradient id="paint3_linear_2:29" x1="751.705" y1="182.553" x2="750.587" y2="344.527" gradientUnits="userSpaceOnUse">
<stop stop-color="#9942F0"/>
<stop offset="1" stop-color="#FF1AEC" stop-opacity="0.96"/>
</linearGradient>
</defs>
</svg>
