<svg width="557" height="777" viewBox="0 0 557 777" fill="none" xmlns="http://www.w3.org/2000/svg">
<g clip-path="url(#clip0_2:39)">
<path d="M1.02393 1H559C559 1 569.536 360.091 541.009 409.104C541.009 409.104 524.708 436.111 492.105 409.104C459.502 382.097 524.708 276.07 492.105 193.049C480.654 163.892 437.087 163.041 410.598 193.049C384.108 223.057 422.824 589.15 422.824 661.168C422.824 733.187 320.94 733.187 320.94 661.168C320.94 589.15 380.052 231.059 320.94 193.049C261.828 155.039 312.789 175.892 276.111 193.049C239.432 210.206 341.316 538.137 276.111 467.119C210.905 396.101 249.621 593.151 210.905 593.151C172.189 593.151 255.734 127.032 200.717 97.0245C145.699 67.0168 223.131 248.063 164.038 248.063C104.946 248.063 178.302 672.171 178.302 733.187C178.302 794.202 86.6065 786.2 86.6065 733.187C86.6065 680.173 121.247 289.073 68.2673 231.059C15.2877 173.044 117.172 205.052 49.9282 259.066C-17.3152 313.08 92.7195 445.113 49.9282 467.119C7.13697 489.124 1.02393 467.119 1.02393 467.119V1Z" fill="url(#paint0_linear_2:39)"/>
<path d="M1 1H541.159C541.159 1 551.359 341.558 523.742 388.041C523.742 388.041 507.961 413.654 476.4 388.041C444.838 362.428 507.961 261.873 476.4 183.137C465.315 155.484 423.139 154.678 397.495 183.137C371.851 211.596 409.331 558.794 409.331 627.095C409.331 695.396 310.7 695.396 310.7 627.095C310.7 558.794 367.925 219.185 310.7 183.137C253.476 147.089 302.81 166.865 267.303 183.137C231.796 199.409 330.426 510.414 267.303 443.061C204.179 375.708 241.659 562.588 204.179 562.588C166.699 562.588 247.577 120.527 194.316 92.0684C141.055 63.6095 216.015 235.311 158.809 235.311C101.603 235.311 172.617 637.53 172.617 695.396C172.617 753.263 83.8497 745.674 83.8497 695.396C83.8497 645.119 117.384 274.205 66.0962 219.185C14.8083 164.164 113.439 194.52 48.3427 245.746C-16.7535 296.972 89.7676 422.191 48.3427 443.061C6.91785 463.931 1 443.061 1 443.061V1Z" fill="url(#paint1_linear_2:39)"/>
</g>
<defs>
<linearGradient id="paint0_linear_2:39" x1="277.356" y1="1" x2="277.356" y2="776" gradientUnits="userSpaceOnUse">
<stop stop-color="#CC99FF"/>
<stop offset="1" stop-color="#99FFFF"/>
</linearGradient>
<linearGradient id="paint1_linear_2:39" x1="268.508" y1="1" x2="268.508" y2="736" gradientUnits="userSpaceOnUse">
<stop stop-color="#AD00FF"/>
<stop offset="1" stop-color="#00B2FF"/>
</linearGradient>
<clipPath id="clip0_2:39">
<rect width="557" height="777" fill="white"/>
</clipPath>
</defs>
</svg>
