<svg width="970" height="670" viewBox="0 0 970 670" fill="none" xmlns="http://www.w3.org/2000/svg">
<path d="M715.296 11.5592C590.816 -10.3901 345.237 292.117 341.468 430.454C337.698 568.791 871.294 661.226 918.573 544.079C965.852 426.933 839.776 33.5082 715.296 11.5592Z" fill="url(#Wave-Blue)"/>
<path d="M424.531 91C307.66 91 132.616 402.553 151.395 527.785C170.173 653.017 670.883 651.528 695.125 538.476C719.366 425.423 541.4 91 424.531 91Z" fill="url(#Wave-Purple)"/>
<path d="M777.278 216.603C776.079 203.69 772.768 191.062 767.476 179.223C766.001 175.928 764.378 172.706 762.606 169.556C762.517 169.391 762.495 169.198 762.546 169.018C762.597 168.838 762.716 168.685 762.877 168.59C763.039 168.496 763.23 168.468 763.412 168.512C763.594 168.556 763.751 168.67 763.851 168.828C770.295 180.3 774.809 192.753 777.213 205.689C777.881 209.301 778.384 212.94 778.721 216.603C778.806 217.527 777.363 217.522 777.278 216.603Z" fill="#E6E6E6"/>
<path d="M759.112 171.87C754.066 171.87 749.975 167.779 749.975 162.733C749.975 157.687 754.066 153.596 759.112 153.596C764.158 153.596 768.248 157.687 768.248 162.733C768.248 167.779 764.158 171.87 759.112 171.87Z" fill="#E6E6E6"/>
<path d="M776.343 216.846C775.566 208.469 773.417 200.276 769.985 192.596C769.028 190.458 767.975 188.367 766.825 186.324C766.767 186.217 766.754 186.092 766.786 185.975C766.819 185.858 766.895 185.759 767 185.698C767.105 185.636 767.23 185.618 767.348 185.647C767.466 185.676 767.568 185.749 767.633 185.852C771.813 193.294 774.742 201.374 776.301 209.765C776.735 212.109 777.061 214.469 777.28 216.846C777.335 217.446 776.398 217.442 776.343 216.846Z" fill="#E6E6E6"/>
<path d="M764.558 187.825C761.284 187.825 758.631 185.171 758.631 181.898C758.631 178.624 761.284 175.97 764.558 175.97C767.832 175.97 770.485 178.624 770.485 181.898C770.485 185.171 767.832 187.825 764.558 187.825Z" fill="#E6E6E6"/>
<path d="M777.525 216.286C782.064 209.202 785.408 201.422 787.426 193.253C787.986 190.98 788.441 188.684 788.793 186.366C788.813 186.246 788.878 186.139 788.976 186.067C789.074 185.995 789.196 185.964 789.317 185.98C789.437 185.996 789.546 186.058 789.621 186.154C789.696 186.249 789.732 186.37 789.72 186.491C788.438 194.93 785.778 203.101 781.846 210.678C780.747 212.792 779.553 214.854 778.263 216.862C777.938 217.369 777.202 216.79 777.525 216.286Z" fill="#E6E6E6"/>
<path d="M789.727 187.409C786.454 187.409 783.8 184.755 783.8 181.482C783.8 178.208 786.454 175.554 789.727 175.554C793.001 175.554 795.655 178.208 795.655 181.482C795.655 184.755 793.001 187.409 789.727 187.409Z" fill="#E6E6E6"/>
<path d="M795.721 221.531V209.885C795.72 208.727 795.259 207.617 794.441 206.798C793.622 205.98 792.511 205.519 791.354 205.518H764.18C763.022 205.519 761.913 205.98 761.094 206.798C760.275 207.617 759.815 208.727 759.813 209.885V221.531C759.815 222.688 760.275 223.799 761.094 224.617C761.913 225.436 763.022 225.897 764.18 225.898H791.354C792.511 225.897 793.622 225.436 794.441 224.617C795.259 223.799 795.72 222.688 795.721 221.531Z" fill="#F2F2F2"/>
<path d="M765.151 147.288H776.796C777.954 147.287 779.064 146.826 779.883 146.008C780.702 145.189 781.163 144.079 781.164 142.921V95.3672C781.163 94.2093 780.702 93.0993 779.883 92.2806C779.064 91.4618 777.954 91.0013 776.796 91H765.151C763.993 91.0013 762.883 91.4618 762.064 92.2806C761.245 93.0993 760.785 94.2093 760.783 95.3672V142.921C760.785 144.079 761.245 145.189 762.064 146.008C762.883 146.826 763.993 147.287 765.151 147.288Z" fill="#F2F2F2"/>
<path d="M761.269 100.22H780.678V104.102H761.269V100.22Z" fill="#CCCCCC"/>
<path d="M761.269 130.305H780.678V134.187H761.269V130.305Z" fill="#CCCCCC"/>
<path d="M736.036 147.288H747.682C748.84 147.287 749.95 146.826 750.769 146.008C751.587 145.189 752.048 144.079 752.049 142.921V95.3672C752.048 94.2093 751.587 93.0993 750.769 92.2806C749.95 91.4618 748.84 91.0013 747.682 91H736.036C734.878 91.0013 733.769 91.4618 732.95 92.2806C732.131 93.0993 731.671 94.2093 731.669 95.3672V142.921C731.671 144.079 732.131 145.189 732.95 146.008C733.769 146.826 734.878 147.287 736.036 147.288Z" fill="#F2F2F2"/>
<path d="M732.154 100.22H751.564V104.102H732.154V100.22Z" fill="#CCCCCC"/>
<path d="M732.154 130.305H751.564V134.187H732.154V130.305Z" fill="#CCCCCC"/>
<path d="M706.921 147.288H718.567C719.725 147.287 720.835 146.826 721.654 146.008C722.472 145.189 722.933 144.079 722.934 142.921V95.3672C722.933 94.2093 722.472 93.0993 721.654 92.2806C720.835 91.4618 719.725 91.0013 718.567 91H706.921C705.763 91.0013 704.653 91.4618 703.835 92.2806C703.016 93.0993 702.556 94.2093 702.554 95.3672V142.921C702.556 144.079 703.016 145.189 703.835 146.008C704.653 146.826 705.763 147.287 706.921 147.288Z" fill="#F2F2F2"/>
<path d="M703.039 100.22H722.449V104.102H703.039V100.22Z" fill="#CCCCCC"/>
<path d="M703.039 130.305H722.449V134.187H703.039V130.305Z" fill="#CCCCCC"/>
<path d="M691.393 225.898H703.039C704.197 225.897 705.307 225.436 706.126 224.617C706.945 223.799 707.406 222.689 707.406 221.531V173.977C707.406 172.819 706.945 171.709 706.126 170.89C705.307 170.071 704.197 169.611 703.039 169.61H691.393C690.236 169.611 689.125 170.071 688.307 170.89C687.488 171.709 687.028 172.819 687.026 173.977V221.531C687.028 222.689 687.488 223.799 688.307 224.617C689.125 225.436 690.236 225.897 691.393 225.898Z" fill="#F2F2F2"/>
<path d="M687.511 178.829H706.921V182.711H687.511V178.829Z" fill="#CCCCCC"/>
<path d="M687.511 208.914H706.921V212.796H687.511V208.914Z" fill="#CCCCCC"/>
<path d="M662.279 225.898H673.925C675.082 225.897 676.193 225.436 677.012 224.617C677.83 223.799 678.291 222.689 678.292 221.531V173.977C678.291 172.819 677.83 171.709 677.012 170.89C676.193 170.071 675.082 169.611 673.925 169.61H662.279C661.121 169.611 660.011 170.071 659.193 170.89C658.374 171.709 657.914 172.819 657.912 173.977V221.531C657.914 222.689 658.374 223.799 659.193 224.617C660.011 225.436 661.121 225.897 662.279 225.898Z" fill="#F2F2F2"/>
<path d="M658.397 178.829H677.807V182.711H658.397V178.829Z" fill="#CCCCCC"/>
<path d="M658.397 208.914H677.807V212.796H658.397V208.914Z" fill="#CCCCCC"/>
<path d="M633.164 225.898H644.81C645.968 225.897 647.078 225.436 647.897 224.617C648.715 223.799 649.176 222.689 649.177 221.531V173.977C649.176 172.819 648.715 171.709 647.897 170.89C647.078 170.071 645.968 169.611 644.81 169.61H633.164C632.006 169.611 630.896 170.071 630.078 170.89C629.259 171.709 628.799 172.819 628.797 173.977V221.531C628.799 222.689 629.259 223.799 630.078 224.617C630.896 225.436 632.006 225.897 633.164 225.898Z" fill="#F2F2F2"/>
<path d="M629.282 178.829H648.692V182.711H629.282V178.829Z" fill="#CCCCCC"/>
<path d="M629.282 208.914H648.692V212.796H629.282V208.914Z" fill="#CCCCCC"/>
<path d="M768.062 304.507H779.708C780.866 304.506 781.976 304.045 782.795 303.226C783.613 302.408 784.074 301.298 784.075 300.14V252.586C784.074 251.428 783.613 250.318 782.795 249.499C781.976 248.681 780.866 248.22 779.708 248.219H768.062C766.904 248.22 765.795 248.681 764.976 249.499C764.157 250.318 763.697 251.428 763.695 252.586V300.14C763.697 301.298 764.157 302.408 764.976 303.226C765.795 304.045 766.904 304.506 768.062 304.507Z" fill="#F2F2F2"/>
<path d="M764.18 257.439H783.59V261.321H764.18V257.439Z" fill="#CCCCCC"/>
<path d="M764.18 287.524H783.59V291.406H764.18V287.524Z" fill="#CCCCCC"/>
<path d="M738.947 304.507H750.593C751.751 304.506 752.861 304.045 753.68 303.226C754.498 302.408 754.959 301.298 754.96 300.14V252.586C754.959 251.428 754.498 250.318 753.68 249.499C752.861 248.681 751.751 248.22 750.593 248.219H738.947C737.789 248.22 736.68 248.681 735.861 249.499C735.042 250.318 734.582 251.428 734.58 252.586V300.14C734.582 301.298 735.042 302.408 735.861 303.226C736.68 304.045 737.789 304.506 738.947 304.507Z" fill="#F2F2F2"/>
<path d="M735.065 257.439H754.475V261.321H735.065V257.439Z" fill="#CCCCCC"/>
<path d="M735.065 287.524H754.475V291.406H735.065V287.524Z" fill="#CCCCCC"/>
<path d="M709.833 304.507H721.479C722.636 304.506 723.747 304.045 724.566 303.226C725.384 302.408 725.845 301.298 725.846 300.14V252.586C725.845 251.428 725.384 250.318 724.566 249.499C723.747 248.681 722.636 248.22 721.479 248.219H709.833C708.675 248.22 707.565 248.681 706.747 249.499C705.927 250.318 705.468 251.428 705.466 252.586V300.14C705.468 301.298 705.927 302.408 706.747 303.226C707.565 304.045 708.675 304.506 709.833 304.507Z" fill="#F2F2F2"/>
<path d="M705.951 257.439H725.36V261.321H705.951V257.439Z" fill="#CCCCCC"/>
<path d="M705.951 287.524H725.36V291.406H705.951V287.524Z" fill="#CCCCCC"/>
<path d="M677.807 147.288H689.453C690.61 147.287 691.721 146.826 692.54 146.008C693.358 145.189 693.819 144.079 693.82 142.921V95.3672C693.819 94.2093 693.358 93.0993 692.54 92.2806C691.721 91.4618 690.61 91.0013 689.453 91H677.807C676.649 91.0013 675.539 91.4618 674.72 92.2806C673.901 93.0993 673.441 94.2093 673.439 95.3672V142.921C673.441 144.079 673.901 145.189 674.72 146.008C675.539 146.826 676.649 147.287 677.807 147.288Z" fill="#F2F2F2"/>
<path d="M673.925 100.22H693.334V104.102H673.925V100.22Z" fill="#CCCCCC"/>
<path d="M673.925 130.305H693.334V134.187H673.925V130.305Z" fill="#CCCCCC"/>
<path d="M648.692 147.288H660.338C661.496 147.287 662.606 146.826 663.425 146.008C664.243 145.189 664.704 144.079 664.705 142.921V95.3672C664.704 94.2093 664.243 93.0993 663.425 92.2806C662.606 91.4618 661.496 91.0013 660.338 91H648.692C647.534 91.0013 646.424 91.4618 645.606 92.2806C644.787 93.0993 644.327 94.2093 644.325 95.3672V142.921C644.327 144.079 644.787 145.189 645.606 146.008C646.424 146.826 647.534 147.287 648.692 147.288Z" fill="#F2F2F2"/>
<path d="M644.81 100.22H664.22V104.102H644.81V100.22Z" fill="#CCCCCC"/>
<path d="M644.81 130.305H664.22V134.187H644.81V130.305Z" fill="#CCCCCC"/>
<path d="M619.577 147.288H631.223C632.381 147.287 633.491 146.826 634.31 146.008C635.128 145.189 635.589 144.079 635.59 142.921V95.3672C635.589 94.2093 635.128 93.0993 634.31 92.2806C633.491 91.4618 632.381 91.0013 631.223 91H619.577C618.42 91.0013 617.31 91.4618 616.491 92.2806C615.672 93.0993 615.212 94.2093 615.21 95.3672V142.921C615.212 144.079 615.672 145.189 616.491 146.008C617.31 146.826 618.42 147.287 619.577 147.288Z" fill="#F2F2F2"/>
<path d="M615.695 100.22H635.105V104.102H615.695V100.22Z" fill="#CCCCCC"/>
<path d="M615.695 130.305H635.105V134.187H615.695V130.305Z" fill="#CCCCCC"/>
<path d="M590.463 147.288H602.109C603.266 147.287 604.377 146.826 605.196 146.008C606.015 145.189 606.475 144.079 606.476 142.921V95.3672C606.475 94.2093 606.015 93.0993 605.196 92.2806C604.377 91.4618 603.266 91.0013 602.109 91H590.463C589.305 91.0013 588.196 91.4618 587.377 92.2806C586.557 93.0993 586.097 94.2093 586.095 95.3672V142.921C586.097 144.079 586.557 145.189 587.377 146.008C588.196 146.826 589.305 147.287 590.463 147.288Z" fill="#F2F2F2"/>
<path d="M586.581 100.22H605.991V104.102H586.581V100.22Z" fill="#CCCCCC"/>
<path d="M586.581 130.305H605.991V134.187H586.581V130.305Z" fill="#CCCCCC"/>
<path d="M546.848 148.744H823.437C823.695 148.744 823.942 148.642 824.124 148.46C824.306 148.278 824.408 148.031 824.408 147.773C824.408 147.516 824.306 147.269 824.124 147.087C823.942 146.905 823.695 146.803 823.437 146.803H546.848C546.591 146.803 546.344 146.905 546.162 147.087C545.981 147.269 545.878 147.516 545.878 147.773C545.878 148.031 545.981 148.278 546.162 148.46C546.344 148.642 546.591 148.744 546.848 148.744Z" fill="#CCCCCC"/>
<path d="M546.848 227.354H823.437C823.695 227.354 823.942 227.252 824.124 227.069C824.306 226.888 824.408 226.64 824.408 226.383C824.408 226.126 824.306 225.878 824.124 225.697C823.942 225.514 823.695 225.413 823.437 225.413H546.848C546.591 225.413 546.344 225.514 546.162 225.697C545.981 225.878 545.878 226.126 545.878 226.383C545.878 226.64 545.981 226.888 546.162 227.069C546.344 227.252 546.591 227.354 546.848 227.354Z" fill="#CCCCCC"/>
<path d="M546.848 305.963H823.437C823.695 305.963 823.942 305.861 824.124 305.679C824.306 305.497 824.408 305.25 824.408 304.992C824.408 304.735 824.306 304.488 824.124 304.306C823.942 304.124 823.695 304.022 823.437 304.022H546.848C546.591 304.022 546.344 304.124 546.162 304.306C545.981 304.488 545.878 304.735 545.878 304.992C545.878 305.25 545.981 305.497 546.162 305.679C546.344 305.861 546.591 305.963 546.848 305.963Z" fill="#CCCCCC"/>
<path d="M563.228 458.312C563.228 450.808 591.471 444.725 626.31 444.725C661.149 444.725 689.391 450.808 689.391 458.312C689.391 463.122 677.78 467.344 660.277 469.759V544.2C660.277 545.873 659.613 547.478 658.43 548.661C657.247 549.844 655.642 550.509 653.969 550.509C652.295 550.509 650.691 549.844 649.508 548.661C648.325 547.478 647.66 545.873 647.66 544.2V471.099C640.991 471.617 633.806 471.899 626.31 471.899C618.815 471.899 611.628 471.617 604.959 471.099V544.2C604.959 545.873 604.295 547.478 603.112 548.661C601.929 549.844 600.324 550.509 598.651 550.509C596.978 550.509 595.373 549.844 594.19 548.661C593.007 547.478 592.343 545.873 592.343 544.2V469.759C574.84 467.344 563.228 463.122 563.228 458.312Z" fill="#CCCCCC"/>
<path d="M575.366 538.304H563.468L557.808 492.411H575.368L575.366 538.304Z" fill="#FFB8B8"/>
<path d="M540.521 549.351L577.915 549.352L577.916 534.904L554.97 534.903C551.139 534.903 547.463 536.425 544.754 539.135C542.044 541.844 540.521 545.519 540.521 549.351Z" fill="#2F2E41"/>
<path d="M556.793 531.664L545.441 528.101L553.779 482.619L570.534 487.876L556.793 531.664Z" fill="#FFB8B8"/>
<path d="M520.24 531.771L555.918 542.968L560.244 529.183L538.351 522.313C534.695 521.165 530.732 521.517 527.336 523.291C523.94 525.065 521.387 528.115 520.24 531.771Z" fill="#2F2E41"/>
<path d="M564.754 510.541L586.519 453.407C591.401 454.553 632.351 463.615 646.067 449.012C650.767 444.007 651.684 436.756 648.791 427.459L640.788 417.401L640.538 417.415C637.512 417.574 566.359 421.562 561.481 443.024C557.369 461.119 549.859 494.854 547.655 504.763C547.431 505.788 547.584 506.862 548.086 507.785C548.586 508.709 549.402 509.421 550.386 509.793L559.138 513.075C559.627 513.258 560.143 513.352 560.664 513.352C561.55 513.352 562.416 513.083 563.146 512.582C563.875 512.079 564.436 511.368 564.754 510.541Z" fill="#2F2E41"/>
<path d="M577.37 517.334L599.135 460.201C604.019 461.347 644.967 470.407 658.683 455.805C663.383 450.8 664.3 443.549 661.407 434.253L653.404 424.195L653.154 424.208C650.128 424.367 578.975 428.355 574.097 449.817C569.986 467.912 562.475 501.647 560.271 511.556C560.048 512.582 560.2 513.655 560.702 514.578C561.203 515.502 562.019 516.214 563.002 516.586L571.755 519.868C572.243 520.052 572.759 520.146 573.28 520.146C574.166 520.146 575.032 519.877 575.762 519.375C576.492 518.872 577.053 518.161 577.37 517.334Z" fill="#2F2E41"/>
<path d="M547.955 380.376C548.278 380.806 548.565 381.261 548.814 381.737L596.68 386.779L603.569 377.333L619.185 385.867L605.652 408.792L546.95 393.824C545.469 395.268 543.583 396.227 541.544 396.574C539.505 396.919 537.409 396.637 535.534 395.762C533.659 394.888 532.096 393.464 531.051 391.679C530.004 389.895 529.528 387.833 529.682 385.771C529.836 383.709 530.615 381.742 531.914 380.132C533.213 378.523 534.971 377.347 536.955 376.762C538.939 376.176 541.054 376.208 543.02 376.854C544.984 377.5 546.706 378.728 547.955 380.376Z" fill="#FFB8B8"/>
<path d="M661.715 437.27C662.37 436.797 662.882 436.154 663.194 435.409C663.505 434.664 663.604 433.847 663.48 433.049C660.78 415.248 663.887 389.747 666.969 371.488C667.6 367.784 667.354 363.984 666.252 360.391C665.149 356.798 663.222 353.514 660.622 350.801C658.022 348.087 654.822 346.02 651.28 344.766C647.738 343.511 643.951 343.104 640.222 343.576C636.979 344.004 633.766 344.638 630.603 345.473C625.348 346.795 620.699 349.868 617.422 354.183C614.144 358.498 612.434 363.801 612.569 369.218C613.029 386.837 609.452 408.819 607.893 417.453C607.787 418.046 607.803 418.654 607.942 419.24C608.082 419.826 608.34 420.378 608.702 420.86C609.056 421.337 609.508 421.733 610.025 422.027C610.542 422.319 611.115 422.5 611.706 422.558C628.989 424.322 647.626 432.75 657.197 437.617C657.813 437.934 658.494 438.101 659.187 438.103C660.096 438.1 660.982 437.808 661.715 437.27Z" fill="#63A5FF"/>
<path d="M615.064 391.354C615.597 391.145 616.085 390.831 616.497 390.432C616.909 390.033 617.238 389.555 617.464 389.028L627.103 366.762C627.686 365.417 627.998 363.97 628.023 362.504C628.047 361.038 627.782 359.582 627.242 358.218C626.704 356.854 625.901 355.61 624.88 354.556C623.86 353.504 622.642 352.661 621.297 352.079C619.951 351.497 618.504 351.185 617.038 351.162C615.571 351.139 614.115 351.405 612.752 351.946C611.388 352.486 610.145 353.29 609.093 354.311C608.04 355.332 607.2 356.55 606.618 357.897L596.98 380.162C596.521 381.224 596.503 382.426 596.929 383.503C597.355 384.579 598.191 385.443 599.252 385.904L611.721 391.301C612.247 391.531 612.813 391.654 613.387 391.663C613.96 391.672 614.531 391.567 615.064 391.354Z" fill="#63A5FF"/>
<path d="M593.568 378.435C593.891 378.865 594.178 379.32 594.427 379.796L642.293 384.838L649.182 375.392L664.798 383.926L651.265 406.851L592.563 391.883C591.082 393.327 589.196 394.286 587.157 394.633C585.118 394.978 583.022 394.696 581.147 393.821C579.272 392.947 577.709 391.523 576.663 389.738C575.617 387.954 575.141 385.892 575.295 383.83C575.449 381.768 576.228 379.801 577.527 378.192C578.826 376.583 580.584 375.406 582.568 374.821C584.552 374.235 586.667 374.267 588.632 374.913C590.597 375.559 592.319 376.787 593.568 378.435Z" fill="#FFB8B8"/>
<path d="M660.677 392.325C661.21 392.115 661.698 391.802 662.11 391.402C662.521 391.003 662.85 390.526 663.077 389.999L672.715 367.733C673.299 366.388 673.611 364.941 673.635 363.474C673.66 362.009 673.395 360.552 672.855 359.189C672.317 357.824 671.514 356.581 670.493 355.527C669.473 354.474 668.255 353.632 666.91 353.049C665.564 352.467 664.117 352.155 662.651 352.132C661.184 352.11 659.728 352.376 658.365 352.916C657.001 353.457 655.758 354.26 654.706 355.281C653.653 356.302 652.813 357.52 652.231 358.867L642.592 381.132C642.133 382.195 642.116 383.396 642.542 384.474C642.968 385.55 643.804 386.414 644.865 386.875L657.334 392.272C657.86 392.502 658.426 392.625 659 392.634C659.573 392.642 660.144 392.537 660.677 392.325Z" fill="#63A5FF"/>
<path d="M641.997 336.002C628.832 336.002 618.16 325.33 618.16 312.166C618.16 299.001 628.832 288.329 641.997 288.329C655.161 288.329 665.833 299.001 665.833 312.166C665.833 325.33 655.161 336.002 641.997 336.002Z" fill="#FFB8B8"/>
<path d="M659.039 328.525C659.141 328.225 659.173 327.907 659.134 327.593C659.094 327.28 658.983 326.979 658.809 326.715C658.635 326.451 658.403 326.23 658.131 326.07C657.858 325.91 657.553 325.814 657.237 325.789C656.592 325.824 655.96 325.989 655.381 326.276C654.8 326.562 654.285 326.963 653.864 327.454C653.001 328.447 651.998 329.31 650.883 330.013C649.731 330.594 648.167 330.511 647.509 329.402C646.892 328.362 647.315 326.968 647.689 325.76C648.64 322.685 649.172 319.496 649.271 316.279C649.378 312.688 648.872 308.94 646.883 306.139C644.317 302.524 639.73 301.152 635.388 301.251C631.046 301.35 626.774 302.691 622.473 303.538C620.989 303.831 619.243 303.98 618.25 302.829C617.194 301.606 617.582 299.626 618.031 297.973C619.196 293.687 620.432 289.254 623.141 285.792C626.069 282.194 630.251 279.84 634.846 279.202C639.257 278.656 643.735 279.164 647.911 280.685C654.715 282.83 660.702 287.001 665.072 292.64C669.576 298.638 671.523 306.175 670.485 313.603C669.472 320.073 666.043 325.918 660.891 329.96L659.039 328.525Z" fill="#2F2E41"/>
<path d="M750.051 385.908C748.852 372.996 745.541 360.368 740.249 348.528C738.774 345.233 737.15 342.011 735.379 338.861C735.29 338.697 735.268 338.504 735.319 338.323C735.369 338.144 735.488 337.989 735.65 337.895C735.812 337.801 736.003 337.773 736.185 337.818C736.367 337.861 736.524 337.975 736.624 338.133C743.068 349.605 747.582 362.058 749.986 374.994C750.654 378.607 751.157 382.245 751.494 385.908C751.579 386.832 750.136 386.826 750.051 385.908Z" fill="#3F3D56"/>
<path d="M731.884 341.174C726.839 341.174 722.748 337.084 722.748 332.038C722.748 326.993 726.839 322.902 731.884 322.902C736.931 322.902 741.021 326.993 741.021 332.038C741.021 337.084 736.931 341.174 731.884 341.174Z" fill="#63A5FF"/>
<path d="M749.116 386.151C748.339 377.774 746.19 369.581 742.757 361.9C741.8 359.763 740.748 357.673 739.597 355.629C739.54 355.522 739.526 355.397 739.559 355.28C739.592 355.164 739.668 355.064 739.773 355.003C739.878 354.942 740.003 354.923 740.121 354.952C740.239 354.98 740.341 355.054 740.406 355.157C744.586 362.6 747.515 370.678 749.074 379.071C749.508 381.415 749.834 383.774 750.053 386.151C750.108 386.75 749.171 386.746 749.116 386.151Z" fill="#3F3D56"/>
<path d="M737.331 357.13C734.057 357.13 731.404 354.477 731.404 351.203C731.404 347.929 734.057 345.276 737.331 345.276C740.605 345.276 743.258 347.929 743.258 351.203C743.258 354.477 740.605 357.13 737.331 357.13Z" fill="#63A5FF"/>
<path d="M750.298 385.592C754.837 378.508 758.181 370.727 760.199 362.559C760.759 360.285 761.214 357.989 761.566 355.672C761.585 355.551 761.651 355.444 761.749 355.373C761.847 355.3 761.969 355.269 762.09 355.285C762.21 355.302 762.319 355.364 762.394 355.459C762.469 355.554 762.505 355.674 762.492 355.796C761.211 364.235 758.551 372.407 754.619 379.982C753.52 382.097 752.326 384.159 751.036 386.167C750.711 386.674 749.975 386.095 750.298 385.592Z" fill="#3F3D56"/>
<path d="M762.5 356.714C759.227 356.714 756.573 354.061 756.573 350.787C756.573 347.514 759.227 344.859 762.5 344.859C765.774 344.859 768.428 347.514 768.428 350.787C768.428 354.061 765.774 356.714 762.5 356.714Z" fill="#63A5FF"/>
<path d="M768.494 390.836V379.19C768.493 378.032 768.032 376.922 767.214 376.103C766.395 375.284 765.284 374.824 764.127 374.823H736.953C735.795 374.824 734.685 375.284 733.867 376.103C733.048 376.922 732.588 378.032 732.586 379.19V390.836C732.588 391.994 733.048 393.103 733.867 393.922C734.685 394.742 735.795 395.202 736.953 395.203H764.127C765.284 395.202 766.395 394.742 767.214 393.922C768.032 393.103 768.493 391.994 768.494 390.836Z" fill="#CCCCCC"/>
<path d="M524.894 387.467H601.562C603.438 387.467 604.959 388.987 604.959 390.863C604.959 392.739 603.438 394.26 601.562 394.26H524.894C523.018 394.26 521.497 392.739 521.497 390.863C521.497 388.987 523.018 387.467 524.894 387.467Z" fill="#CCCCCC"/>
<path d="M473.458 394.26H559.831C561.504 394.258 563.108 393.593 564.29 392.41C565.473 391.228 566.137 389.625 566.139 387.952V340.398C566.137 338.726 565.473 337.122 564.29 335.939C563.108 334.757 561.504 334.092 559.831 334.09H473.458C471.786 334.092 470.182 334.757 468.999 335.939C467.817 337.122 467.152 338.726 467.15 340.398V387.952C467.152 389.625 467.817 391.228 468.999 392.41C470.182 393.593 471.786 394.258 473.458 394.26Z" fill="#CCCCCC"/>
<path d="M516.644 369.998C513.429 369.998 510.822 367.391 510.822 364.175C510.822 360.96 513.429 358.352 516.644 358.352C519.861 358.352 522.467 360.96 522.467 364.175C522.467 367.391 519.861 369.998 516.644 369.998Z" fill="white"/>
<path d="M253.643 458.312C253.643 450.808 281.886 444.725 316.724 444.725C351.564 444.725 379.806 450.808 379.806 458.312C379.806 463.122 368.195 467.344 350.691 469.759V544.2C350.691 545.873 350.027 547.478 348.844 548.661C347.661 549.844 346.056 550.509 344.383 550.509C342.71 550.509 341.106 549.844 339.923 548.661C338.74 547.478 338.075 545.873 338.075 544.2V471.099C331.406 471.617 324.219 471.899 316.724 471.899C309.229 471.899 302.043 471.617 295.373 471.099V544.2C295.373 545.873 294.71 547.478 293.527 548.661C292.344 549.844 290.738 550.509 289.065 550.509C287.392 550.509 285.788 549.844 284.605 548.661C283.422 547.478 282.757 545.873 282.757 544.2V469.759C265.254 467.344 253.643 463.122 253.643 458.312Z" fill="#CCCCCC"/>
<path d="M309.749 333.952C294.741 333.952 282.575 321.786 282.575 306.778C282.575 291.771 294.741 279.605 309.749 279.605C324.757 279.605 336.923 291.771 336.923 306.778C336.923 321.786 324.757 333.952 309.749 333.952Z" fill="#2F2E41"/>
<path d="M377.373 539.274H389.271L394.931 493.382H377.371L377.373 539.274Z" fill="#FFB8B8"/>
<path d="M397.769 535.875H374.823V550.321H412.217C412.217 548.424 411.843 546.546 411.118 544.792C410.392 543.04 409.327 541.447 407.986 540.106C406.645 538.764 405.051 537.7 403.298 536.974C401.546 536.248 399.667 535.875 397.769 535.875Z" fill="#2F2E41"/>
<path d="M395.946 532.634L407.298 529.072L398.959 483.59L382.205 488.847L395.946 532.634Z" fill="#FFB8B8"/>
<path d="M414.389 523.283L392.496 530.153L396.821 543.938L432.499 532.742C431.932 530.932 431.013 529.251 429.795 527.796C428.577 526.341 427.085 525.14 425.403 524.262C423.721 523.383 421.883 522.845 419.994 522.677C418.103 522.509 416.199 522.715 414.389 523.283Z" fill="#2F2E41"/>
<path d="M392.076 514.323C392.597 514.323 393.113 514.229 393.601 514.045L402.354 510.763C403.336 510.391 404.153 509.679 404.654 508.755C405.156 507.832 405.308 506.759 405.085 505.733C402.881 495.824 395.37 462.089 391.258 443.994C386.381 422.532 315.227 418.544 312.2 418.385L311.952 418.372L303.947 428.43C301.055 437.726 301.972 444.977 306.673 449.982C320.388 464.585 361.337 455.524 366.221 454.378L387.986 511.511C388.303 512.338 388.864 513.049 389.594 513.552C390.324 514.054 391.189 514.323 392.076 514.323Z" fill="#2F2E41"/>
<path d="M379.459 521.116C379.98 521.116 380.497 521.022 380.985 520.839L389.738 517.556C390.72 517.185 391.537 516.472 392.038 515.549C392.539 514.626 392.692 513.552 392.469 512.526C390.265 502.618 382.754 468.883 378.642 450.788C373.764 429.326 302.611 425.338 299.584 425.179L299.336 425.165L291.331 435.223C288.439 444.519 289.356 451.771 294.056 456.776C307.771 471.378 348.721 462.317 353.604 461.171L375.37 518.305C375.687 519.132 376.248 519.843 376.978 520.346C377.707 520.847 378.573 521.116 379.459 521.116Z" fill="#2F2E41"/>
<path d="M404.783 381.347C404.462 381.776 404.175 382.232 403.924 382.707L356.06 387.75L349.17 378.303L333.554 386.838L347.087 409.762L405.79 394.795C407.271 396.239 409.156 397.198 411.195 397.544C413.234 397.889 415.33 397.607 417.205 396.733C419.079 395.858 420.644 394.435 421.689 392.65C422.734 390.865 423.212 388.804 423.057 386.741C422.903 384.679 422.125 382.712 420.825 381.103C419.526 379.494 417.767 378.318 415.784 377.732C413.8 377.146 411.685 377.178 409.72 377.825C407.755 378.47 406.033 379.699 404.783 381.347Z" fill="#FFB8B8"/>
<path d="M293.553 439.073C294.245 439.071 294.927 438.905 295.542 438.587C305.113 433.72 323.75 425.292 341.033 423.529C341.625 423.471 342.197 423.289 342.715 422.997C343.232 422.704 343.682 422.307 344.037 421.831C344.398 421.348 344.658 420.797 344.796 420.211C344.936 419.625 344.953 419.016 344.847 418.423C343.287 409.79 339.709 387.807 340.17 370.189C340.306 364.772 338.594 359.469 335.317 355.153C332.039 350.839 327.392 347.766 322.136 346.443C318.973 345.609 315.76 344.975 312.516 344.547C308.788 344.074 305.001 344.482 301.459 345.737C297.917 346.991 294.717 349.058 292.117 351.771C289.517 354.485 287.589 357.769 286.487 361.362C285.385 364.954 285.139 368.755 285.77 372.459C288.853 390.718 291.959 416.218 289.259 434.02C289.135 434.818 289.234 435.635 289.545 436.379C289.857 437.125 290.368 437.768 291.024 438.241C291.757 438.778 292.643 439.071 293.553 439.073Z" fill="#63A5FF"/>
<path d="M339.284 392.635C339.881 392.634 340.471 392.51 341.018 392.272L353.487 386.875C354.549 386.414 355.384 385.55 355.81 384.474C356.236 383.396 356.218 382.195 355.76 381.132L346.121 358.867C345.54 357.52 344.699 356.302 343.646 355.281C342.594 354.26 341.351 353.457 339.988 352.916C338.624 352.376 337.168 352.11 335.702 352.132C334.236 352.155 332.789 352.467 331.442 353.049C330.096 353.632 328.879 354.474 327.858 355.527C326.838 356.581 326.036 357.824 325.497 359.189C324.958 360.552 324.693 362.009 324.717 363.474C324.74 364.941 325.054 366.388 325.637 367.733L335.275 389.999C335.615 390.78 336.175 391.447 336.887 391.914C337.598 392.382 338.432 392.633 339.284 392.635Z" fill="#63A5FF"/>
<path d="M310.743 336.972C297.578 336.972 286.907 326.301 286.907 313.136C286.907 299.971 297.578 289.3 310.743 289.3C323.907 289.3 334.579 299.971 334.579 313.136C334.579 326.301 323.907 336.972 310.743 336.972Z" fill="#FFB8B8"/>
<path d="M335.008 301.425C323.717 308.317 310.988 312.511 297.813 313.68L301.733 308.983C298.879 310.038 295.875 310.635 292.833 310.75C289.796 310.703 286.613 309.533 284.888 307.031C284.119 305.788 283.662 304.377 283.557 302.919C283.451 301.46 283.7 299.997 284.281 298.656C285.476 295.98 287.336 293.655 289.683 291.902C293.845 288.61 298.755 286.399 303.979 285.465C309.202 284.532 314.574 284.905 319.618 286.552C323.078 287.586 326.176 289.573 328.558 292.287C330.818 295.074 335.168 297.559 334.011 300.955L335.008 301.425Z" fill="#2F2E41"/>
<path d="M306.735 282.189C314.252 274.565 323.351 268.682 333.387 264.954C339.83 262.567 346.842 261.092 353.578 262.448C360.314 263.803 366.684 268.463 368.563 275.071C370.1 280.476 368.513 286.294 366.129 291.381C363.743 296.469 360.56 301.185 358.632 306.463C356.665 311.847 356.073 317.637 356.91 323.309C357.748 328.979 359.989 334.351 363.43 338.936C366.87 343.522 371.401 347.175 376.612 349.565C381.822 351.954 387.547 353.005 393.267 352.621C386.65 353.508 380.549 356.619 374.08 358.274C367.612 359.93 359.976 359.817 355.169 355.183C350.083 350.279 349.981 342.307 350.227 335.246L351.324 303.759C351.51 298.407 351.669 292.883 349.739 287.887C347.809 282.891 343.221 278.516 337.865 278.561C333.806 278.595 330.214 281.054 326.958 283.48C323.703 285.905 320.258 288.492 316.215 288.852C312.172 289.213 307.555 286.221 307.858 282.173" fill="#2F2E41"/>
<path d="M417.531 363.792L362.648 365.087L354.696 423.759L405.382 424.896L417.531 363.792Z" fill="#E6E6E6"/>
<path d="M359.17 379.406C358.849 379.836 358.562 380.291 358.311 380.766L310.447 385.809L303.557 376.362L287.941 384.897L301.474 407.822L360.177 392.854C361.658 394.298 363.543 395.257 365.582 395.603C367.621 395.949 369.718 395.666 371.592 394.792C373.466 393.917 375.031 392.494 376.076 390.709C377.121 388.924 377.599 386.863 377.445 384.801C377.29 382.738 376.512 380.771 375.212 379.162C373.913 377.553 372.154 376.377 370.171 375.792C368.187 375.205 366.072 375.237 364.107 375.884C362.142 376.529 360.42 377.758 359.17 379.406Z" fill="#FFB8B8"/>
<path d="M293.671 393.605C294.268 393.604 294.858 393.481 295.405 393.243L307.874 387.845C308.936 387.384 309.771 386.52 310.198 385.444C310.624 384.367 310.605 383.165 310.147 382.103L300.508 359.838C299.927 358.491 299.086 357.273 298.033 356.252C296.981 355.231 295.738 354.427 294.375 353.887C293.011 353.346 291.555 353.08 290.089 353.103C288.623 353.126 287.176 353.437 285.83 354.02C284.483 354.602 283.266 355.444 282.246 356.497C281.226 357.551 280.423 358.795 279.884 360.159C279.345 361.523 279.08 362.979 279.104 364.445C279.127 365.911 279.441 367.358 280.024 368.703L289.662 390.969C290.002 391.75 290.562 392.417 291.274 392.885C291.985 393.353 292.819 393.603 293.671 393.605Z" fill="#63A5FF"/>
<path d="M406.494 393.29H792.748C794.421 393.29 796.027 393.954 797.21 395.137C798.393 396.32 799.056 397.925 799.056 399.598C799.056 401.271 798.393 402.875 797.21 404.058C796.027 405.241 794.421 405.906 792.748 405.906H781.588V543.23C781.588 544.903 780.924 546.507 779.741 547.69C778.558 548.873 776.953 549.538 775.279 549.538C773.607 549.538 772.002 548.873 770.819 547.69C769.636 546.507 768.971 544.903 768.971 543.23V418.027L698.251 546.207C697.412 547.652 696.035 548.706 694.421 549.137C692.806 549.568 691.088 549.341 689.641 548.506C688.194 547.67 687.137 546.295 686.703 544.682C686.269 543.068 686.492 541.348 687.325 539.899L761.253 405.906H423.478V405.987L497.36 539.899C498.196 541.348 498.424 543.07 497.991 544.686C497.558 546.302 496.5 547.68 495.051 548.516C493.602 549.353 491.881 549.58 490.265 549.147C488.649 548.713 487.271 547.656 486.434 546.207L423.478 432.099V543.23C423.478 544.903 422.814 546.507 421.631 547.69C420.448 548.873 418.843 549.538 417.169 549.538C415.496 549.538 413.892 548.873 412.709 547.69C411.526 546.507 410.861 544.903 410.861 543.23V409.233L409.026 405.906H406.494C404.821 405.906 403.217 405.241 402.034 404.058C400.851 402.875 400.186 401.271 400.186 399.598C400.186 397.925 400.851 396.32 402.034 395.137C403.217 393.954 404.821 393.29 406.494 393.29Z" fill="#3F3D56"/>
<path d="M190.751 551.381H867.911C868.2 551.38 868.477 551.259 868.681 551.041C868.885 550.825 869 550.532 869 550.226C869 549.919 868.885 549.626 868.681 549.41C868.477 549.194 868.2 549.071 867.911 549.07H190.751C190.461 549.07 190.183 549.192 189.978 549.409C189.773 549.625 189.658 549.919 189.658 550.226C189.658 550.532 189.773 550.826 189.978 551.043C190.183 551.26 190.461 551.381 190.751 551.381Z" fill="#3F3D56"/>
<defs>
<linearGradient id="Wave-Blue" x1="482.715" y1="179.051" x2="915.42" y2="492.243" gradientUnits="userSpaceOnUse">
<stop stop-color="#33EEFF" stop-opacity="0.9"/>
<stop offset="1" stop-color="#0044CC"/>
</linearGradient>
<linearGradient id="Wave-Purple" x1="239.644" y1="278.848" x2="682.119" y2="495.967" gradientUnits="userSpaceOnUse">
<stop stop-color="#FF66F2" stop-opacity="0.9"/>
<stop offset="1" stop-color="#480AC2"/>
</linearGradient>
</defs>
</svg>
